# xmcd
# 
# Track frame offsets:
#     150
#     22155
#     38099
#     56185
#     70951
#     88999
#     115194
#     131371
#     150500
# 
# Disc length: 2336
# 
# Revision: 2
# Processed by: cddbd v1.5.2PL0 Copyright (c) Steve Scherf et al.
# Submitted via: fre:ac v1.0.31
# 
DISCID=79091e09
DTITLE=Sturgill Simpson - A Sailor's Guide To Earth
DYEAR=2016
DGENRE=Country
TTITLE0=Welcome To Earth (Pollywog)
TTITLE1=Breakers Roar
TTITLE2=Keep It Between The Lines
TTITLE3=Sea Stories
TTITLE4=In Bloom
TTITLE5=Brace For Impact (Live A Little)
TTITLE6=All Around You
TTITLE7=Oh Sarah
TTITLE8=Call To Arms
EXTD=
EXTT0=
EXTT1=
EXTT2=
EXTT3=
EXTT4=
EXTT5=
EXTT6=
EXTT7=
EXTT8=
PLAYORDER=
